<svg width="18" height="17" viewBox="0 0 18 17" fill="none" xmlns="http://www.w3.org/2000/svg">
    <path d="M8.10326 0.62387C8.47008 -0.119375 9.52992 -0.119375 9.89674 0.62387L11.7063 4.29036C11.8519 4.5855 12.1335 4.79007 12.4592 4.8374L16.5054 5.42535C17.3256 5.54453 17.6531 6.55251 17.0596 7.13104L14.1318 9.985C13.8961 10.2147 13.7885 10.5457 13.8442 10.8701L14.5353 14.9C14.6754 15.7169 13.818 16.3399 13.0844 15.9542L9.46534 14.0515C9.17402 13.8984 8.82598 13.8984 8.53466 14.0515L4.91562 15.9542C4.18199 16.3399 3.32456 15.7169 3.46467 14.9L4.15585 10.8701C4.21148 10.5457 4.10393 10.2147 3.86825 9.985L0.940385 7.13104C0.346867 6.55251 0.674378 5.54453 1.4946 5.42535L5.54081 4.8374C5.86652 4.79007 6.14808 4.5855 6.29374 4.29036L8.10326 0.62387Z" fill="#2D2D2D"/>
</svg>
